# xmcd
#
# Track frame offsets: 
#        150
#        15440
#        26403
#        41047
#        57881
#        73166
#        94744
#        111281
#        124673
#        144014
#        161362
#        178697
#        193229
#        207821
#        222852
#        237056
#        251886
#        269346
#        285132
#        299912
#        314742
#
# Disc length: 4362 seconds
#
# Revision: 0
# Processed by: cddbd v1.5.2PL0 Copyright (c) Steve Scherf et al.
# Submitted via: ExactAudioCopy v0.99pb4
#
DISCID=3a110815
DTITLE=Various Artist - Maximum Hit Music - Best Of 2012 - CD 2
DYEAR=2012
DGENRE=Top 40
TTITLE0=Gusttavo Lima - Balada
TTITLE1=Shakira - Addicted To You
TTITLE2=Train - Drive By
TTITLE3=Flo Rida - Whistle
TTITLE4=Naughty Boy Feat. Emeli Sandé - Wonder
TTITLE5=Major Lazer Feat. Amber Coffman - Get Free
TTITLE6=Chris Brown - Don't Wake Me Up
TTITLE7=DJ Fresh Feat. Rita Ora - Hot Right Now
TTITLE8=Ben Howard - The Fear
TTITLE9=Maroon 5 - Payphone
TTITLE10=Conor Maynard Feat. Ne-Yo - Turn Around
TTITLE11=Nneka - Shining Star (Joe Goddard Remix)
TTITLE12=Keane - Silenced By The Night
TTITLE13=The Script Feat. Will.I.Am - Hall Of Fame
TTITLE14=Andy Grammer - Keep Your Head Up
TTITLE15=Glenn Claes - The Sound Of Silence
TTITLE16=Fun. Feat. Janelle Monáe - We Are Young
TTITLE17=Gossip - Move In The Right Direction
TTITLE18=Avicii - Levels
TTITLE19=One Direction - What Makes You Beautiful
TTITLE20=Michel Teló - Ai Se Eu Te Pego
EXTD=
EXTT0=
EXTT1=
EXTT2=
EXTT3=
EXTT4=
EXTT5=
EXTT6=
EXTT7=
EXTT8=
EXTT9=
EXTT10=
EXTT11=
EXTT12=
EXTT13=
EXTT14=
EXTT15=
EXTT16=
EXTT17=
EXTT18=
EXTT19=
EXTT20=
PLAYORDER=
